<svg xmlns="http://www.w3.org/2000/svg"  viewBox="0 0 64 64" width="48px" height="48px"><path d="M 25.5 11 C 14.748 11 6 18.402 6 27.5 C 6 32.733574 8.9043558 37.39493 13.410156 40.419922 L 11.027344 45.126953 L 17.335938 42.462891 C 19.823612 43.438893 22.582483 44 25.5 44 C 25.602052 44 25.701059 43.989582 25.802734 43.988281 C 27.945773 49.209737 34.16861 53 41.5 53 C 42.896575 53 44.245007 52.848424 45.541016 52.589844 L 54.585938 56.408203 L 51.5 50.316406 C 55.442246 47.938601 58 44.204715 58 40 C 58 33.777269 52.417885 28.566279 44.994141 27.298828 C 44.865716 18.293583 36.17226 11 25.5 11 z M 25.5 15 C 33.846597 15 40.655169 20.351318 40.970703 27.021484 C 32.127013 27.244016 25.015306 32.962175 25.001953 39.980469 C 16.686635 39.765817 10 34.257382 10 27.5 C 10 20.607 16.953 15 25.5 15 z M 18.5 20 C 17.119 20 16 21.119 16 22.5 C 16 23.881 17.119 25 18.5 25 C 19.881 25 21 23.881 21 22.5 C 21 21.119 19.881 20 18.5 20 z M 32.5 20 C 31.119 20 30 21.119 30 22.5 C 30 23.881 31.119 25 32.5 25 C 33.881 25 35 23.881 35 22.5 C 35 21.119 33.881 20 32.5 20 z M 41.5 31 C 48.393 31 54 35.038 54 40 C 54 44.962 48.393 49 41.5 49 C 34.607 49 29 44.962 29 40 C 29 35.038 34.607 31 41.5 31 z M 36.5 35 C 35.119 35 34 36.119 34 37.5 C 34 38.881 35.119 40 36.5 40 C 37.881 40 39 38.881 39 37.5 C 39 36.119 37.881 35 36.5 35 z M 46.5 35 C 45.119 35 44 36.119 44 37.5 C 44 38.881 45.119 40 46.5 40 C 47.881 40 49 38.881 49 37.5 C 49 36.119 47.881 35 46.5 35 z"/></svg>